<svg id="logo" xmlns="http://www.w3.org/2000/svg" viewBox="0 0 181.4167 53.8582"><defs><style>.cls-1,.cls-2{fill:#fff;}.cls-1{opacity:0;}</style></defs><title>Marvia_logo_02_RGB White</title><rect class="cls-1" width="181.4167" height="53.8582"/><path class="cls-2" d="M81.3888,14.1729a5.21325,5.21325,0,0,0-5.1152,5.2949V38.8546a.81628.81628,0,0,0,.8003.8301h4.2798a.81661.81661,0,0,0,.8007-.8301V21.0264a.91769.91769,0,0,1,.9004-.9306h6.0381a1.27376,1.27376,0,0,0,1.1118-.7842l1.5835-4.3867a.57332.57332,0,0,0-.041-.5352.56266.56266,0,0,0-.4805-.2168Z"/><path class="cls-2" d="M35.0377,18.6245V38.8644a.81885.81885,0,0,0,.815.8203H40.112a.81887.81887,0,0,0,.8154-.8203V10.7412a.81887.81887,0,0,0-.8154-.8203H32.8698a1.27446,1.27446,0,0,0-1.1138.7842L24.9415,29.5353V10.7412a.81877.81877,0,0,0-.8149-.8203H17.0488a1.2754,1.2754,0,0,0-1.1138.7842L5.71547,38.9337a.56917.56917,0,0,0,.04053.5332.56209.56209,0,0,0,.48144.2178H10.7706a1.27523,1.27523,0,0,0,1.1138-.7842L19.213,18.6496V38.8644a.81889.81889,0,0,0,.8155.8203h6.5664a1.274,1.274,0,0,0,1.1137-.7842Z"/><path class="cls-2" d="M57.1749,13.4854c-6.8359,0-11.9912,5.8077-11.9912,13.4435,0,6.6552,4.1192,13.4433,11.9912,13.4433a9.58152,9.58152,0,0,0,7.7032-3.5576l.0888-.1123v2.1523a.81628.81628,0,0,0,.8003.8301h4.2803a.8167.8167,0,0,0,.8008-.8301V15.003a.8167.8167,0,0,0-.8008-.8301H65.7672a.81628.81628,0,0,0-.8003.8301v2.1426l-.0888-.1104A9.61624,9.61624,0,0,0,57.1749,13.4854Zm.858,21.0011c-4.5337,0-6.9795-3.9336-6.9795-7.5889.0351-2.9922,1.9204-7.502,6.9702-7.5255,5.0639.0235,6.9546,4.4991,6.9897,7.4679C65.0133,30.5236,62.567,34.4865,58.0329,34.4865Z"/><path class="cls-2" d="M151.2236,26.839c0,3.6094-2.394,7.3466-6.8305,7.3466-4.4356,0-6.8296-3.7079-6.8301-7.2899.0347-2.9317,1.8799-7.2023,6.8203-7.2267C149.3374,19.6934,151.1885,23.9308,151.2236,26.839ZM175.6992,6.4852l-14.7975,40.887a1.32667,1.32667,0,0,1-1.1587.8161H85.3701a.569.569,0,0,1-.568-.8161L94.018,21.9078l6.0987,16.8931a1.43234,1.43234,0,0,0,1.2534.8838h6.1675a1.4321,1.4321,0,0,0,1.2529-.8838l8.5467-23.6759a.71832.71832,0,0,0-.0586-.6718.70862.70862,0,0,0-.6035-.2803h-4.5254a1.43222,1.43222,0,0,0-1.2529.8838l-6.4432,17.8487L97.2549,12.964l2.3448-6.4788a1.32643,1.32643,0,0,1,1.1587-.816h74.3728A.569.569,0,0,1,175.6992,6.4852Zm-48.3188,8.6672a.96672.96672,0,0,0-.9507-.9795h-4.2788a.96672.96672,0,0,0-.9507.9795V38.7052a.96678.96678,0,0,0,.9507.9795h4.2788a.96678.96678,0,0,0,.9507-.9795Zm29.978,0a.96681.96681,0,0,0-.9512-.9795h-4.2793a.96673.96673,0,0,0-.9511.9795V16.876a9.77561,9.77561,0,0,0-7.6416-3.3906c-6.9214,0-12.1412,5.7228-12.1412,13.4435,0,6.7304,4.1705,13.4433,12.1412,13.4433a9.75172,9.75172,0,0,0,7.6416-3.3955v1.7285a.9668.9668,0,0,0,.9511.9795h4.2793a.96688.96688,0,0,0,.9512-.9795Z"/></svg>